<mxfile host="app.diagrams.net" modified="2024-06-03T12:01:15.116Z" agent="Mozilla/5.0 (Windows NT 10.0; Win64; x64) AppleWebKit/537.36 (KHTML, like Gecko) Chrome/121.0.0.0 Safari/537.36" etag="ZH9Gb88f_aBgE8WqT_LG" version="24.4.13" type="device">
  <diagram name="Página-1" id="D3Wheo29uaxoyTYIz1zD">
    <mxGraphModel dx="2261" dy="782" grid="1" gridSize="10" guides="1" tooltips="1" connect="1" arrows="1" fold="1" page="1" pageScale="1" pageWidth="827" pageHeight="1169" math="0" shadow="0">
      <root>
        <mxCell id="0" />
        <mxCell id="1" parent="0" />
        <mxCell id="0755WhKHFEPAx9Q71sXh-7" value="" style="edgeStyle=orthogonalEdgeStyle;rounded=0;orthogonalLoop=1;jettySize=auto;html=1;" edge="1" parent="1" source="0755WhKHFEPAx9Q71sXh-4" target="0755WhKHFEPAx9Q71sXh-5">
          <mxGeometry relative="1" as="geometry" />
        </mxCell>
        <mxCell id="0755WhKHFEPAx9Q71sXh-4" value="inicio" style="ellipse;whiteSpace=wrap;html=1;" vertex="1" parent="1">
          <mxGeometry x="-250" y="40" width="120" height="80" as="geometry" />
        </mxCell>
        <mxCell id="0755WhKHFEPAx9Q71sXh-8" value="" style="edgeStyle=orthogonalEdgeStyle;rounded=0;orthogonalLoop=1;jettySize=auto;html=1;" edge="1" parent="1" source="0755WhKHFEPAx9Q71sXh-5" target="0755WhKHFEPAx9Q71sXh-6">
          <mxGeometry relative="1" as="geometry" />
        </mxCell>
        <mxCell id="0755WhKHFEPAx9Q71sXh-5" value="gerente solicita produto" style="rounded=0;whiteSpace=wrap;html=1;" vertex="1" parent="1">
          <mxGeometry x="-250" y="170" width="120" height="60" as="geometry" />
        </mxCell>
        <mxCell id="0755WhKHFEPAx9Q71sXh-6" value="Entrou produto?" style="rhombus;whiteSpace=wrap;html=1;" vertex="1" parent="1">
          <mxGeometry x="-237.5" y="280" width="95" height="100" as="geometry" />
        </mxCell>
        <mxCell id="0755WhKHFEPAx9Q71sXh-9" value="saída de produtos" style="rounded=0;whiteSpace=wrap;html=1;" vertex="1" parent="1">
          <mxGeometry x="-110" y="260" width="110" height="60" as="geometry" />
        </mxCell>
      </root>
    </mxGraphModel>
  </diagram>
</mxfile>
